<mxfile host="app.diagrams.net" modified="2021-12-25T05:33:02.004Z" agent="5.0 (Windows)" etag="mqxfWGHEipFIfOY_m4Kl" version="16.0.3" type="github">
  <diagram id="su9ff5keMKQ67kF4XQyJ" name="Page-1">
    <mxGraphModel dx="782" dy="392" grid="1" gridSize="10" guides="1" tooltips="1" connect="1" arrows="1" fold="1" page="1" pageScale="1" pageWidth="827" pageHeight="1169" math="0" shadow="0">
      <root>
        <mxCell id="0" />
        <mxCell id="1" parent="0" />
        <mxCell id="hyW_kmo8Yjrdw4W8xILn-12" value="" style="edgeStyle=orthogonalEdgeStyle;rounded=0;orthogonalLoop=1;jettySize=auto;html=1;fontSize=22;" edge="1" parent="1" source="hyW_kmo8Yjrdw4W8xILn-1" target="hyW_kmo8Yjrdw4W8xILn-2">
          <mxGeometry relative="1" as="geometry" />
        </mxCell>
        <mxCell id="hyW_kmo8Yjrdw4W8xILn-13" value="" style="edgeStyle=orthogonalEdgeStyle;rounded=0;orthogonalLoop=1;jettySize=auto;html=1;fontSize=22;" edge="1" parent="1" source="hyW_kmo8Yjrdw4W8xILn-1" target="hyW_kmo8Yjrdw4W8xILn-9">
          <mxGeometry relative="1" as="geometry" />
        </mxCell>
        <mxCell id="hyW_kmo8Yjrdw4W8xILn-14" value="" style="edgeStyle=orthogonalEdgeStyle;rounded=0;orthogonalLoop=1;jettySize=auto;html=1;fontSize=22;" edge="1" parent="1" source="hyW_kmo8Yjrdw4W8xILn-1" target="hyW_kmo8Yjrdw4W8xILn-5">
          <mxGeometry relative="1" as="geometry" />
        </mxCell>
        <mxCell id="hyW_kmo8Yjrdw4W8xILn-1" value="&lt;b&gt;&lt;font style=&quot;font-size: 22px&quot;&gt;StartUI&lt;/font&gt;&lt;/b&gt;" style="ellipse;whiteSpace=wrap;html=1;aspect=fixed;" vertex="1" parent="1">
          <mxGeometry x="290" y="60" width="120" height="120" as="geometry" />
        </mxCell>
        <mxCell id="hyW_kmo8Yjrdw4W8xILn-2" value="java.utill.Scanner" style="ellipse;whiteSpace=wrap;html=1;aspect=fixed;" vertex="1" parent="1">
          <mxGeometry x="110" y="65" width="110" height="110" as="geometry" />
        </mxCell>
        <mxCell id="hyW_kmo8Yjrdw4W8xILn-5" value="&lt;b&gt;&lt;font style=&quot;font-size: 16px&quot;&gt;Item&lt;/font&gt;&lt;/b&gt;" style="ellipse;whiteSpace=wrap;html=1;aspect=fixed;" vertex="1" parent="1">
          <mxGeometry x="310" y="240" width="80" height="80" as="geometry" />
        </mxCell>
        <mxCell id="hyW_kmo8Yjrdw4W8xILn-15" style="edgeStyle=orthogonalEdgeStyle;rounded=0;orthogonalLoop=1;jettySize=auto;html=1;entryX=1;entryY=0.5;entryDx=0;entryDy=0;fontSize=22;" edge="1" parent="1" source="hyW_kmo8Yjrdw4W8xILn-9" target="hyW_kmo8Yjrdw4W8xILn-5">
          <mxGeometry relative="1" as="geometry">
            <Array as="points">
              <mxPoint x="545" y="280" />
            </Array>
          </mxGeometry>
        </mxCell>
        <mxCell id="hyW_kmo8Yjrdw4W8xILn-9" value="&lt;pre style=&quot;background-color: rgb(255 , 255 , 255) ; color: rgb(8 , 8 , 8) ; font-family: &amp;#34;jetbrains mono&amp;#34; , monospace ; font-size: 16px&quot;&gt;&lt;b&gt;&lt;font style=&quot;font-size: 16px&quot;&gt;&lt;span style=&quot;color: #000000&quot;&gt;Tracker&lt;/span&gt;&lt;/font&gt;&lt;/b&gt;&lt;/pre&gt;" style="ellipse;whiteSpace=wrap;html=1;aspect=fixed;" vertex="1" parent="1">
          <mxGeometry x="490" y="65" width="110" height="110" as="geometry" />
        </mxCell>
      </root>
    </mxGraphModel>
  </diagram>
</mxfile>
